<svg width="854" height="240" viewBox="0 0 854 240" fill="none" xmlns="http://www.w3.org/2000/svg">
<path fill-rule="evenodd" clip-rule="evenodd" d="M319.256 54.071V200.01C319.256 201.165 318.324 202.101 317.173 202.101C316.023 202.101 315.091 201.165 315.091 200.01V120.055H253.748V188.917C253.748 190.07 252.816 191.007 251.665 191.007C250.515 191.007 249.583 190.07 249.583 188.917V120.055H241.941V200.008C241.941 201.164 241.009 202.101 239.859 202.101C238.707 202.101 237.776 201.164 237.776 200.008V54.071C237.776 52.9163 238.707 51.9796 239.859 51.9796C241.009 51.9796 241.941 52.9163 241.941 54.071V115.875H249.583V64.5883C249.583 63.4336 250.515 62.497 251.665 62.497C252.816 62.497 253.748 63.4336 253.748 64.5883V115.875H315.091V54.071C315.091 52.9163 316.023 51.9796 317.173 51.9796C318.323 51.9796 319.256 52.9163 319.256 54.071Z" fill="#5C1419"/>
<path fill-rule="evenodd" clip-rule="evenodd" d="M357.468 149.743V64.5897C357.468 63.4337 358.4 62.4971 359.552 62.4971C360.702 62.4971 361.633 63.4337 361.633 64.5897V149.743C361.633 171.239 375.967 185.126 398.148 185.126C399.298 185.126 400.23 186.062 400.23 187.217C400.23 188.373 399.298 189.308 398.148 189.308C373.816 189.308 357.468 173.408 357.468 149.743ZM445.078 54.0711V146.422C445.078 174.136 429.683 202.102 395.293 202.102C379.73 202.102 366.695 196.383 357.596 185.567C349.465 175.902 344.986 162.65 344.986 148.253V54.0711C344.986 52.9174 345.92 51.981 347.068 51.981C348.218 51.981 349.151 52.9174 349.151 54.0711V148.253C349.151 172.975 363.419 197.919 395.293 197.919C426.806 197.919 440.911 172.054 440.911 146.422V54.0711C440.911 52.9174 441.844 51.981 442.994 51.981C444.144 51.981 445.078 52.9174 445.078 54.0711Z" fill="#5C1419"/>
<path fill-rule="evenodd" clip-rule="evenodd" d="M571.447 200.009C571.447 201.165 570.515 202.102 569.364 202.102H473.025C471.876 202.102 470.943 201.165 470.943 200.009V54.0721C470.943 52.9174 471.876 51.981 473.025 51.981H569.364C570.515 51.981 571.447 52.9174 571.447 54.0721C571.447 55.2255 570.515 56.1625 569.364 56.1625H475.108V115.875H482.749V64.5897C482.749 63.4337 483.68 62.4969 484.83 62.4969C485.981 62.4969 486.913 63.4337 486.913 64.5897V115.876H548.625C549.775 115.876 550.707 116.811 550.707 117.966C550.707 119.121 549.775 120.056 548.625 120.056H486.913V188.917C486.913 190.072 485.981 191.007 484.83 191.007C483.68 191.007 482.749 190.072 482.749 188.917V120.056H475.108V197.919H569.364C570.515 197.919 571.447 198.854 571.447 200.009Z" fill="#5C1419"/>
<path fill-rule="evenodd" clip-rule="evenodd" d="M664.933 200.009C664.933 201.165 664.002 202.102 662.85 202.102H585.536C584.805 202.102 584.128 201.716 583.751 201.086C583.374 200.457 583.355 199.675 583.699 199.027L659.384 56.1625H585.536C584.386 56.1625 583.454 55.2271 583.454 54.0721C583.454 52.9174 584.386 51.982 585.536 51.982L662.85 51.981C663.581 51.981 664.26 52.3643 664.636 52.9957C665.012 53.6231 665.033 54.4058 664.689 55.0524L589.002 197.919H662.85C664.002 197.919 664.933 198.854 664.933 200.009ZM646.006 65.6419L580.179 189.898C579.805 190.604 579.085 191.007 578.339 191.007C578.009 191.007 577.674 190.929 577.362 190.762C576.348 190.219 575.963 188.954 576.502 187.934L642.33 63.6785C642.872 62.6587 644.133 62.2734 645.147 62.8151C646.163 63.3566 646.546 64.6231 646.006 65.6419Z" fill="#5C1419"/>
<path fill-rule="evenodd" clip-rule="evenodd" d="M678.711 127.041C678.711 160.323 704.5 187.403 736.198 187.403C737.349 187.403 738.282 188.338 738.282 189.493C738.282 190.648 737.349 191.583 736.198 191.583C702.204 191.583 674.545 162.63 674.545 127.041C674.545 91.4525 702.204 62.4971 736.198 62.4971C737.349 62.4971 738.282 63.4337 738.282 64.5897C738.282 65.7444 737.349 66.6799 736.198 66.6799C704.5 66.6799 678.711 93.758 678.711 127.041ZM803.718 127.041C803.718 87.9587 773.429 56.1611 736.198 56.1611C698.968 56.1611 668.679 87.9587 668.679 127.041C668.679 166.122 698.968 197.919 736.198 197.919C773.428 197.919 803.718 166.122 803.718 127.041ZM807.883 127.041C807.883 168.429 775.725 202.102 736.198 202.102C696.67 202.102 664.514 168.429 664.514 127.041C664.514 85.6516 696.671 51.981 736.198 51.981C775.724 51.981 807.883 85.6516 807.883 127.041Z" fill="#5C1419"/>
<path fill-rule="evenodd" clip-rule="evenodd" d="M172.876 127.04C172.876 174.925 135.671 213.885 89.9378 213.885C44.2035 213.885 7 174.925 7 127.04C7 79.1532 44.2051 40.1947 89.9378 40.1947C135.67 40.1947 172.876 79.1532 172.876 127.04Z" fill="#5C1419"/>
<path fill-rule="evenodd" clip-rule="evenodd" d="M127.405 70.9223C125.937 74.5907 124.161 77.4711 122.662 77.0246C121.175 76.5627 121.327 73.2343 122.003 69.3107C122.849 64.4388 125.243 62.7927 126.733 63.2327C128.242 63.6728 129.473 65.926 127.405 70.9223ZM97.9702 153.848C97.7235 150.776 97.2366 147.725 96.5032 144.727C96.36 144.134 96.4824 143.51 96.8469 142.997C97.1943 142.503 97.7429 142.178 98.355 142.117H98.4163C99.1331 142.033 99.8247 142.321 100.29 142.884C100.65 143.325 100.65 143.905 100.599 144.464L99.3581 149.261L97.9702 153.848ZM86.407 138.872C82.0021 139.275 77.763 139.631 73.6814 139.925C72.9912 139.978 72.3178 139.68 71.8872 139.148C71.4424 138.603 71.2952 137.88 71.4819 137.217L74.926 124.816C76.1527 125.287 77.3543 125.84 78.4965 126.466C82.411 128.625 85.6928 131.759 88.0391 135.555C88.4252 136.199 88.4697 136.995 88.1416 137.673C87.7913 138.348 87.1431 138.801 86.407 138.872ZM66.4635 138.943C66.199 139.833 65.4231 140.459 64.508 140.521C42.0366 141.823 26.8009 141.166 25.5971 138.289C25.5971 138.289 25.6392 137.376 28.1493 135.359C38.0365 127.539 50.1505 123.108 62.7293 122.718C64.65 122.708 66.5439 122.85 68.4225 123.138C69.0131 123.243 69.5241 123.599 69.8473 124.113C70.1748 124.619 70.2552 125.246 70.094 125.827L66.4635 138.943ZM127.333 61.2877C124.812 60.5136 122.052 62.3947 121.142 65.4434C121.032 65.7013 120.975 65.8936 120.928 66.1363L102.558 136.916C102.269 137.107 101.978 137.278 101.624 137.317C99.6635 137.531 97.7235 137.749 95.8104 137.942C94.912 138.022 94.0508 137.531 93.6865 136.701C90.9363 130.733 86.3458 125.807 80.6345 122.624C79.717 122.133 78.7805 121.686 77.8231 121.283C76.8429 120.868 76.3331 119.779 76.6193 118.755L87.8115 78.3026C88.0582 77.5428 87.855 76.7023 87.3054 76.1302C86.7523 75.5606 85.9152 75.3217 85.1612 75.5374C84.3879 75.7415 83.7962 76.3561 83.593 77.1349L72.4403 117.46C72.1323 118.531 71.0514 119.187 69.9741 118.958C54.7384 116.259 37.1802 122.565 25.4359 131.942C21.8246 134.829 20.5441 137.553 21.6006 140.017C23.8665 145.353 41.3642 146.171 61.8335 145.178C62.5287 145.146 63.1789 145.434 63.6122 145.976C64.0378 146.519 64.1808 147.222 63.9969 147.893L57.8769 170.021C57.5959 171.167 58.2693 172.346 59.4092 172.663C60.5464 172.983 61.7528 172.326 62.103 171.189L69.0131 146.19C69.2572 145.321 70.0136 144.695 70.912 144.636C77.1702 144.206 83.5318 143.653 89.6709 143.037C90.6882 142.925 91.6265 143.569 91.9344 144.552C93.666 151.617 95.0936 159.549 94.7549 166.961L84.8478 205.156L102.855 150.86L105.984 142.544C106.226 141.741 106.938 141.155 107.777 141.048C115.423 140.129 121.988 139.248 126.536 138.614C127.333 138.533 128.005 138.022 128.311 137.285C128.617 136.538 128.497 135.688 128.005 135.062C127.518 134.44 126.723 134.134 125.928 134.265C120.89 134.974 115.894 135.617 111.022 136.218C110.308 136.3 109.593 136.013 109.145 135.465C108.673 134.912 108.536 134.153 108.734 133.457L109.918 129.567L130.045 68.8513C130.126 68.628 130.158 68.4213 130.239 68.1752C131.144 65.1176 129.823 62.0445 127.333 61.2877Z" fill="#ED6C61"/>
<path fill-rule="evenodd" clip-rule="evenodd" d="M832.372 26.9186C825.009 26.9186 819.018 32.9326 819.018 40.3258C819.018 47.7174 825.009 53.7314 832.372 53.7314C839.734 53.7314 845.725 47.7174 845.725 40.3258C845.725 32.9326 839.734 26.9186 832.372 26.9186ZM832.372 54.6512C824.505 54.6512 818.103 48.2245 818.103 40.3258C818.103 32.4255 824.505 26 832.372 26C840.239 26 846.64 32.4255 846.64 40.3258C846.64 48.2245 840.239 54.6512 832.372 54.6512Z" fill="#5C1419"/>
<path fill-rule="evenodd" clip-rule="evenodd" d="M826.661 47.7578V32.8931H833.225C834.545 32.8931 835.548 33.028 836.234 33.2944C836.919 33.5605 837.468 34.0318 837.881 34.7063C838.292 35.3846 838.495 36.1322 838.495 36.949C838.495 38.005 838.157 38.8906 837.475 39.6144C836.796 40.3375 835.744 40.798 834.324 40.995C834.844 41.2441 835.237 41.4901 835.506 41.7358C836.079 42.2615 836.62 42.9228 837.133 43.7118L839.709 47.7578H837.243L835.285 44.6639C834.713 43.7743 834.241 43.0892 833.869 42.618C833.5 42.1439 833.169 41.8119 832.876 41.625C832.583 41.4344 832.286 41.3032 831.983 41.2271C831.759 41.1817 831.397 41.1578 830.89 41.1578H828.619V47.7578H826.661ZM828.619 39.4548H832.832C833.724 39.4548 834.427 39.3612 834.931 39.1744C835.438 38.9877 835.82 38.6902 836.082 38.2814C836.344 37.8733 836.475 37.4305 836.475 36.949C836.475 36.2463 836.223 35.6683 835.713 35.2153C835.206 34.7617 834.403 34.537 833.304 34.537H828.619V39.4548Z" fill="#5C1419"/>
</svg>
